<svg width="162" height="40" fill="none" xmlns="http://www.w3.org/2000/svg"><g clip-path="url(#a)" stroke="#5B46C7" stroke-width="2" stroke-linecap="round" stroke-linejoin="round"><path d="M6.327 32.112 14.53 9.553a1.216 1.216 0 0 1 2.007-.445l14.356 14.356a1.217 1.217 0 0 1-.447 2.005l-22.56 8.204a1.217 1.217 0 0 1-1.56-1.56ZM21.875 2.5v3.75M34.375 18.125l2.5 2.5M33.75 12.5l3.75-1.25M12.201 15.952l11.847 11.847M15.798 30.799l-6.596-6.597M26.316 10.625C26.502 9.558 27.222 7.5 30 7.5c3.75 0 3.75-3.75 3.75-3.75"/></g><path d="M68.415 16.722h-2.66a4.066 4.066 0 0 0-.57-1.5 4.197 4.197 0 0 0-1.023-1.1 4.405 4.405 0 0 0-1.355-.682 5.29 5.29 0 0 0-1.577-.23c-1.006 0-1.906.253-2.702.759-.79.505-1.414 1.247-1.875 2.224-.454.977-.681 2.17-.681 3.58 0 1.42.227 2.619.681 3.596.46.978 1.089 1.716 1.884 2.216.795.5 1.69.75 2.685.75.55 0 1.073-.074 1.568-.221.5-.154.952-.378 1.355-.674a4.082 4.082 0 0 0 1.61-2.565l2.66.009a7.121 7.121 0 0 1-.827 2.369 6.536 6.536 0 0 1-1.56 1.858 7.055 7.055 0 0 1-2.164 1.201c-.813.285-1.7.427-2.66.427-1.51 0-2.857-.358-4.04-1.074-1.181-.722-2.113-1.753-2.795-3.094-.676-1.34-1.014-2.94-1.014-4.798 0-1.864.341-3.463 1.023-4.799.682-1.34 1.614-2.369 2.795-3.085 1.182-.721 2.526-1.082 4.032-1.082.926 0 1.79.133 2.59.4a6.837 6.837 0 0 1 2.174 1.16 6.378 6.378 0 0 1 1.594 1.857c.42.728.704 1.56.852 2.498Zm8.46 12.042c-1.227 0-2.298-.281-3.212-.843-.915-.563-1.625-1.35-2.131-2.361-.506-1.012-.759-2.194-.759-3.546 0-1.358.253-2.545.759-3.562s1.216-1.807 2.13-2.37c.915-.562 1.986-.843 3.214-.843 1.227 0 2.298.28 3.213.843s1.625 1.353 2.13 2.37c.506 1.017.759 2.204.759 3.562 0 1.352-.253 2.534-.758 3.546-.506 1.011-1.216 1.798-2.131 2.36-.915.563-1.986.844-3.213.844Zm.01-2.139c.795 0 1.454-.21 1.977-.63.522-.421.909-.98 1.159-1.68.255-.699.383-1.468.383-2.31 0-.834-.128-1.602-.383-2.3-.25-.705-.637-1.27-1.16-1.696-.522-.427-1.181-.64-1.977-.64-.8 0-1.466.213-1.994.64-.523.426-.912.991-1.168 1.695a6.789 6.789 0 0 0-.375 2.302c0 .84.125 1.61.375 2.31.256.698.645 1.258 1.168 1.678.528.42 1.193.631 1.994.631Zm13.838 2.13c-1.057 0-2-.27-2.83-.809-.823-.545-1.471-1.321-1.943-2.327-.466-1.011-.699-2.224-.699-3.639 0-1.415.236-2.625.708-3.63.477-1.006 1.13-1.776 1.96-2.31.83-.534 1.77-.801 2.821-.801.813 0 1.466.136 1.96.409.5.267.887.58 1.16.937.278.358.494.674.647.946h.153v-6.485h2.549V28.5H94.72v-2.037h-.213a6.738 6.738 0 0 1-.665.955c-.284.358-.676.67-1.176.937-.5.267-1.147.4-1.943.4Zm.563-2.173c.733 0 1.352-.193 1.858-.58.51-.391.897-.934 1.159-1.627.267-.693.4-1.5.4-2.42 0-.91-.13-1.705-.392-2.387-.261-.682-.645-1.213-1.15-1.594-.506-.38-1.131-.57-1.876-.57-.766 0-1.406.198-1.917.596-.511.398-.898.94-1.16 1.628-.255.687-.383 1.463-.383 2.326 0 .875.131 1.662.392 2.361.262.7.648 1.253 1.16 1.662.517.404 1.153.605 1.909.605Zm15.202 2.182c-1.29 0-2.401-.275-3.332-.826-.927-.557-1.643-1.339-2.148-2.344-.5-1.012-.75-2.196-.75-3.554 0-1.341.25-2.523.75-3.546.505-1.022 1.21-1.82 2.113-2.395.91-.573 1.972-.86 3.188-.86.739 0 1.454.122 2.148.366a5.2 5.2 0 0 1 1.866 1.15c.551.523.986 1.202 1.304 2.038.318.83.477 1.838.477 3.025v.904h-10.406v-1.91h7.909c0-.67-.136-1.264-.409-1.78a3.096 3.096 0 0 0-1.15-1.236c-.489-.302-1.063-.452-1.722-.452-.716 0-1.341.176-1.875.528a3.542 3.542 0 0 0-1.227 1.364 3.937 3.937 0 0 0-.426 1.815v1.492c0 .875.153 1.619.46 2.233a3.324 3.324 0 0 0 1.304 1.406c.557.318 1.207.477 1.951.477.483 0 .924-.068 1.322-.204a2.86 2.86 0 0 0 1.031-.631c.29-.279.511-.622.665-1.031l2.411.434a4.365 4.365 0 0 1-1.039 1.867c-.495.528-1.117.94-1.867 1.235-.744.29-1.594.435-2.548.435Zm8.648-17.718h3.196l5.557 13.568h.205l5.557-13.569h3.196V28.5h-2.506V15.87h-.162l-5.148 12.604h-2.079l-5.148-12.613h-.162V28.5h-2.506V11.046Zm26.849 17.718c-1.227 0-2.298-.281-3.213-.843-.915-.563-1.625-1.35-2.131-2.361-.505-1.012-.758-2.194-.758-3.546 0-1.358.253-2.545.758-3.562.506-1.017 1.216-1.807 2.131-2.37.915-.562 1.986-.843 3.213-.843s2.298.28 3.213.843 1.625 1.353 2.131 2.37c.506 1.017.758 2.204.758 3.562 0 1.352-.252 2.534-.758 3.546-.506 1.011-1.216 1.798-2.131 2.36-.915.563-1.986.844-3.213.844Zm.009-2.139c.795 0 1.454-.21 1.977-.63.523-.421.909-.98 1.159-1.68.256-.699.383-1.468.383-2.31 0-.834-.127-1.602-.383-2.3-.25-.705-.636-1.27-1.159-1.696-.523-.427-1.182-.64-1.977-.64-.802 0-1.466.213-1.995.64-.522.426-.912.991-1.167 1.695a6.789 6.789 0 0 0-.375 2.302c0 .84.125 1.61.375 2.31.255.698.645 1.258 1.167 1.678.529.42 1.193.631 1.995.631Zm8.938-11.216h2.548v13.943c0 .875-.159 1.614-.477 2.216a3.116 3.116 0 0 1-1.398 1.372c-.614.313-1.372.47-2.275.47h-.256c-.085 0-.173-.004-.264-.01v-2.19H149.219c.602 0 1.037-.162 1.304-.486.272-.318.409-.78.409-1.389V15.41Zm1.261-2.02a1.62 1.62 0 0 1-1.142-.443 1.443 1.443 0 0 1-.469-1.074c0-.42.157-.778.469-1.074a1.603 1.603 0 0 1 1.142-.451c.443 0 .821.15 1.134.451.318.296.477.654.477 1.074 0 .415-.159.773-.477 1.074a1.592 1.592 0 0 1-1.134.443Zm4.715 15.111V15.41h2.549V28.5h-2.549Zm1.287-15.11a1.62 1.62 0 0 1-1.142-.444 1.442 1.442 0 0 1-.468-1.074c0-.42.156-.778.468-1.074a1.603 1.603 0 0 1 1.142-.451c.443 0 .821.15 1.134.451.318.296.477.654.477 1.074 0 .415-.159.773-.477 1.074a1.592 1.592 0 0 1-1.134.443Z" fill="#5B46C7"/><defs><clipPath id="a"><path fill="#fff" d="M0 0h40v40H0z"/></clipPath></defs></svg>